<svg width="1700" height="1519" viewBox="0 0 1700 1519" fill="none" xmlns="http://www.w3.org/2000/svg">
<mask id="mask0_1_7" style="mask-type:luminance" maskUnits="userSpaceOnUse" x="0" y="0" width="1700" height="1520">
<path d="M1700 0H0V1519H1700V0Z" fill="white"/>
</mask>
<g mask="url(#mask0_1_7)">
<path d="M1397.73 491.834C1379.64 485.609 1361.39 479.838 1343.01 474.532C1346.1 461.876 1348.94 449.37 1351.47 437.086C1392.89 235.344 1365.81 72.8176 1273.31 19.3062C1184.63 -31.9935 1039.59 21.4979 893.113 149.394C878.677 162.021 864.561 175.012 850.78 188.355C841.554 179.482 832.164 170.782 822.617 162.259C669.1 25.5087 515.222 -32.1267 422.826 21.5379C334.221 72.9976 307.984 225.784 345.278 416.979C348.987 435.912 353.178 454.75 357.842 473.472C336.06 479.684 315.043 486.293 294.928 493.326C114.942 556.284 0 654.948 0 757.286C0 862.983 123.396 969.001 310.859 1033.28C326.057 1038.48 341.381 1043.29 356.819 1047.71C351.804 1067.87 347.354 1088.18 343.471 1108.59C307.917 1296.46 335.682 1445.64 424.05 1496.77C515.317 1549.58 668.5 1495.31 817.656 1364.49C829.75 1353.86 841.577 1342.92 853.129 1331.69C868.056 1346.14 883.379 1360.17 899.083 1373.76C1043.57 1498.49 1186.26 1548.86 1274.54 1497.59C1365.72 1444.63 1395.36 1284.37 1356.89 1089.4C1353.85 1074.13 1350.45 1058.93 1346.69 1043.82C1357.45 1040.62 1368.01 1037.33 1378.3 1033.91C1573.19 969.128 1699.99 864.396 1699.99 757.286C1699.99 654.575 1581.34 555.248 1397.73 491.834ZM1355.46 964.75C1346.17 967.835 1336.63 970.814 1326.91 973.712C1305.39 905.376 1276.36 832.716 1240.83 757.638C1274.73 684.356 1302.65 612.624 1323.56 544.733C1340.95 549.785 1357.83 555.108 1374.1 560.724C1531.41 615.059 1627.37 695.388 1627.37 757.286C1627.37 823.217 1523.74 908.807 1355.46 964.75ZM1285.65 1103.55C1302.66 1189.76 1305.08 1267.71 1293.81 1328.65C1283.69 1383.41 1263.33 1419.91 1238.15 1434.53C1184.58 1465.65 1070.01 1425.21 946.449 1318.53C931.843 1305.89 917.587 1292.86 903.703 1279.42C951.608 1226.86 999.482 1165.77 1046.2 1097.9C1128.39 1090.59 1206.03 1078.62 1276.44 1062.29C1279.83 1075.97 1282.9 1089.73 1285.65 1103.55ZM579.564 1429.16C527.224 1447.7 485.535 1448.23 460.331 1433.66C406.708 1402.63 384.417 1282.85 414.823 1122.18C418.437 1103.19 422.577 1084.31 427.234 1065.56C496.868 1081.01 573.945 1092.13 656.321 1098.83C703.363 1165.23 752.618 1226.26 802.255 1279.71C791.709 1289.95 780.907 1299.93 769.87 1309.64C703.908 1367.48 637.814 1408.52 579.564 1429.16ZM334.354 964.342C251.459 935.916 183.001 898.972 136.079 858.659C93.9111 822.437 72.6281 786.468 72.6281 757.286C72.6281 695.179 164.912 615.966 318.834 562.13C337.514 555.6 357.065 549.436 377.352 543.655C398.628 613.075 426.532 685.66 460.205 759.058C426.092 833.544 397.792 907.288 376.308 977.529C362.217 973.479 348.231 969.084 334.354 964.342ZM416.552 402.981C384.604 239.175 405.818 115.609 459.216 84.5965C516.088 51.5647 641.847 98.6605 774.398 216.743C783.042 224.46 791.545 232.334 799.905 240.361C750.514 293.572 701.709 354.154 655.087 420.163C575.135 427.597 498.604 439.535 428.24 455.534C423.903 438.119 420.006 420.591 416.552 402.981ZM1149.85 584.645C1133.23 555.846 1115.99 527.407 1098.16 499.35C1152.4 506.232 1204.36 515.366 1253.17 526.531C1238.51 573.648 1220.26 622.903 1198.76 673.403C1183.05 643.492 1166.74 613.903 1149.85 584.645ZM850.811 292.433C884.306 328.844 917.857 369.489 950.851 413.592C883.914 410.421 816.868 410.408 749.928 413.555C782.96 369.855 816.793 329.261 850.811 292.433ZM549.853 585.148C533.177 614.166 517.172 643.574 501.863 673.341C480.72 623.023 462.622 573.542 447.848 525.758C496.35 514.873 548.073 505.972 601.969 499.216C583.928 527.444 566.553 556.1 549.853 585.148ZM603.517 1020.54C547.835 1014.31 495.334 1005.86 446.846 995.269C461.852 946.637 480.349 896.102 501.948 844.703C517.322 874.494 533.388 903.919 550.139 932.95C567.365 962.8 585.2 992.033 603.517 1020.54ZM852.819 1227.27C818.392 1190.01 784.061 1148.79 750.531 1104.47C783.086 1105.74 816.268 1106.4 849.996 1106.4C884.647 1106.4 918.897 1105.62 952.614 1104.11C919.51 1149.24 886.086 1190.52 852.819 1227.27ZM1199.44 842.079C1222.17 894.043 1241.32 944.311 1256.52 992.112C1207.24 1003.4 1154.02 1012.49 1097.95 1019.23C1115.92 990.658 1133.32 961.722 1150.14 932.451C1167.24 902.698 1183.68 872.564 1199.44 842.079ZM1087.23 896.048C1061.48 940.928 1034.28 984.956 1005.68 1028.06C953.865 1031.74 901.937 1033.57 849.996 1033.54C797.089 1033.54 745.632 1031.89 696.08 1028.67C666.73 985.66 639.014 941.557 612.985 896.448C587.082 851.578 562.895 805.737 540.456 759.027C562.837 712.304 586.96 666.438 612.774 621.535C638.577 576.621 666.069 532.712 695.197 489.888C745.751 486.053 797.594 484.052 849.989 484.052C902.623 484.052 954.537 486.071 1005.08 489.936C1033.91 532.695 1061.23 576.46 1086.99 621.148C1112.89 665.956 1137.34 711.592 1160.28 757.994C1137.57 804.868 1113.21 850.915 1087.23 896.048ZM1237.04 82.4244C1293.96 115.363 1316.1 248.189 1280.34 422.373C1278.06 433.487 1275.49 444.806 1272.7 456.286C1202.17 439.949 1125.58 427.805 1045.4 420.256C998.684 353.521 950.282 292.846 901.692 240.321C914.427 228.005 927.465 216.009 940.793 204.344C1066.3 94.7698 1183.6 51.5048 1237.04 82.4244ZM849.996 604.989C933.834 604.989 1001.8 673.174 1001.8 757.286C1001.8 841.398 933.834 909.587 849.996 909.587C766.157 909.587 698.191 841.398 698.191 757.286C698.191 673.174 766.157 604.989 849.996 604.989Z" fill="white"/>
</g>
</svg>
